<svg width="33" height="30" viewBox="0 0 33 30" fill="none" xmlns="http://www.w3.org/2000/svg">
<path d="M6.50706 21.5264L5.5963 21.936L5.5963 21.936L6.50706 21.5264ZM6.04502 14.7466L5.08826 14.4604L5.08826 14.4604L6.04502 14.7466ZM26.5341 14.7466L27.4908 14.4604L27.4908 14.4604L26.5341 14.7466ZM26.072 21.5264L25.1612 21.1167L25.1612 21.1167L26.072 21.5264ZM19.0011 26.1217L18.8612 25.1329L18.8612 25.1329L19.0011 26.1217ZM13.5779 26.1217L13.4381 27.1105L13.4381 27.1105L13.5779 26.1217ZM11.0732 10.3165L10.8926 9.33433L11.0732 10.3165ZM21.5058 10.3165L21.3252 11.2986L21.3252 11.2986L21.5058 10.3165ZM12.581 25.9807L12.7209 24.9919L12.7209 24.9919L12.581 25.9807ZM6.63074 21.8014L7.54149 21.3917L7.54149 21.3917L6.63074 21.8014ZM19.998 25.9807L20.1379 26.9695L20.1379 26.9695L19.998 25.9807ZM25.9483 21.8014L26.8591 22.211L26.8591 22.211L25.9483 21.8014ZM26.4322 14.4059L25.4754 14.6921L25.4754 14.6921L26.4322 14.4059ZM6.14692 14.4059L7.10367 14.6921L7.10367 14.6921L6.14692 14.4059ZM20.5204 10.6074L19.6213 10.1728L19.6213 10.1728L20.5204 10.6074ZM19.3377 10.7596C19.0977 11.2562 19.3056 11.8533 19.8022 12.0933C20.2988 12.3334 20.8959 12.1254 21.1359 11.6288L19.3377 10.7596ZM12.0586 10.6074L12.9577 10.1728L12.9577 10.1728L12.0586 10.6074ZM11.4432 11.6288C11.6832 12.1254 12.2803 12.3334 12.7769 12.0933C13.2734 11.8533 13.4814 11.2562 13.2414 10.7596L11.4432 11.6288ZM15.2815 4.61374L15.4346 5.60057L15.4346 5.60057L15.2815 4.61374ZM15.4379 4.58948L15.2848 3.60265L15.2848 3.60265L15.4379 4.58948ZM17.1412 4.58948L16.9881 5.5763L16.9881 5.5763L17.1412 4.58948ZM17.2976 4.61374L17.4507 3.62692L17.4507 3.62692L17.2976 4.61374ZM20.8504 7.60863L21.8211 7.37402L21.8211 7.37402L20.8504 7.60863ZM11.7287 7.60863L12.6993 7.84323L12.6993 7.84323L11.7287 7.60863ZM19.8582 24.9919L18.8612 25.1329L19.141 27.1105L20.1379 26.9695L19.8582 24.9919ZM13.7178 25.1329L12.7209 24.9919L12.4411 26.9695L13.4381 27.1105L13.7178 25.1329ZM25.4754 14.6921L25.5773 15.0328L27.4908 14.4604L27.3889 14.1197L25.4754 14.6921ZM25.1612 21.1167L25.0376 21.3918L26.8591 22.211L26.9828 21.936L25.1612 21.1167ZM7.54149 21.3917L7.41781 21.1167L5.5963 21.936L5.71999 22.211L7.54149 21.3917ZM7.00177 15.0328L7.10367 14.6921L5.19017 14.1197L5.08826 14.4604L7.00177 15.0328ZM7.41781 21.1167C6.54301 19.1718 6.39965 17.0459 7.00177 15.0328L5.08826 14.4604C4.34695 16.9389 4.52699 19.5586 5.5963 21.936L7.41781 21.1167ZM25.5773 15.0328C26.1794 17.0459 26.0361 19.1718 25.1612 21.1167L26.9828 21.936C28.0521 19.5586 28.2321 16.9389 27.4908 14.4604L25.5773 15.0328ZM18.8612 25.1329C17.1581 25.3739 15.4209 25.3739 13.7178 25.1329L13.4381 27.1105C15.3267 27.3777 17.2523 27.3777 19.141 27.1105L18.8612 25.1329ZM11.2539 11.2986C14.5739 10.6879 18.0052 10.6879 21.3252 11.2986L21.6865 9.33433C18.1277 8.67964 14.4514 8.67964 10.8926 9.33433L11.2539 11.2986ZM12.7209 24.9919C10.3163 24.6517 8.37515 23.2452 7.54149 21.3917L5.71999 22.211C6.87354 24.7758 9.45711 26.5473 12.4411 26.9695L12.7209 24.9919ZM20.1379 26.9695C23.1219 26.5473 25.7055 24.7758 26.8591 22.211L25.0376 21.3917C24.2039 23.2453 22.2627 24.6517 19.8582 24.9919L20.1379 26.9695ZM21.3252 11.2986C23.4182 11.6837 24.982 13.0425 25.4754 14.6921L27.3889 14.1197C26.6475 11.6409 24.3963 9.83282 21.6865 9.33433L21.3252 11.2986ZM10.8926 9.33433C8.18278 9.83282 5.93159 11.6409 5.19016 14.1197L7.10367 14.6921C7.59705 13.0425 9.16091 11.6837 11.2539 11.2986L10.8926 9.33433ZM19.6213 10.1728L19.3377 10.7596L21.1359 11.6288L21.4195 11.0421L19.6213 10.1728ZM11.1595 11.0421L11.4432 11.6288L13.2414 10.7596L12.9577 10.1728L11.1595 11.0421ZM15.4346 5.60057L15.591 5.5763L15.2848 3.60265L15.1284 3.62692L15.4346 5.60057ZM16.9881 5.5763L17.1445 5.60057L17.4507 3.62692L17.2943 3.60265L16.9881 5.5763ZM19.8797 7.84323C20.0675 8.61997 19.9805 9.42972 19.6213 10.1728L21.4195 11.0421C21.9762 9.89056 22.1194 8.60834 21.8211 7.37402L19.8797 7.84323ZM10.758 7.37402C10.4597 8.60834 10.6029 9.89056 11.1595 11.0421L12.9577 10.1728C12.5985 9.42972 12.5116 8.61997 12.6993 7.84323L10.758 7.37402ZM15.591 5.5763C16.0528 5.50464 16.5262 5.50464 16.9881 5.5763L17.2943 3.60265C16.6295 3.49951 15.9496 3.49951 15.2848 3.60265L15.591 5.5763ZM21.8211 7.37402C21.3394 5.38118 19.5557 3.95353 17.4507 3.62692L17.1445 5.60057C18.5919 5.82515 19.6197 6.76751 19.8797 7.84323L21.8211 7.37402ZM12.6993 7.84323C12.9593 6.76751 13.9872 5.82515 15.4346 5.60057L15.1284 3.62692C13.0234 3.95353 11.2396 5.38118 10.758 7.37402L12.6993 7.84323Z" fill="white"/>
</svg>
