<svg width="33" height="30" viewBox="0 0 33 30" fill="none" xmlns="http://www.w3.org/2000/svg">
<g clip-path="url(#clip0_5_439)">
<path d="M7.55566 26.3403C7.55566 23.1272 9.81567 20.3904 12.8871 19.884L13.1637 19.8384C15.6232 19.4329 18.1293 19.4329 20.5887 19.8384L20.8654 19.884C23.9368 20.3904 26.1968 23.1272 26.1968 26.3403C26.1968 27.7291 25.107 28.8549 23.7626 28.8549H9.98984C8.64548 28.8549 7.55566 27.7291 7.55566 26.3403Z" stroke="white" stroke-width="1.99727"/>
<path d="M22.3133 10.1305C22.3133 13.026 19.879 15.3733 16.8763 15.3733C13.8735 15.3733 11.4393 13.026 11.4393 10.1305C11.4393 7.23499 13.8735 4.8877 16.8763 4.8877C19.879 4.8877 22.3133 7.23499 22.3133 10.1305Z" stroke="white" stroke-width="1.99727"/>
</g>
<defs>
<clipPath id="clip0_5_439">
<rect width="31.9563" height="29.0511" fill="white" transform="translate(0.897949 0.893066)"/>
</clipPath>
</defs>
</svg>
